<svg xmlns="http://www.w3.org/2000/svg" viewBox="0 0 200 125">
    <!-- Keyboard Base -->
    <rect x="5" y="5" width="190" height="115" rx="5" fill="#2f3640" stroke="#666"/>
    
    <!-- Main Keys Section -->
    <g fill="#3f4853" stroke="#222" stroke-width="0.5">
        <!-- Number Row -->
        <rect x="11" y="9.5" width="17.5" height="17.5" rx="1.5"/>
        <rect x="31" y="9.5" width="17.5" height="17.5" rx="1.5"/>
        <rect x="51" y="9.5" width="17.5" height="17.5" rx="1.5"/>
        <rect x="71" y="9.5" width="17.5" height="17.5" rx="1.5"/>
        <rect x="91" y="9.5" width="17.5" height="17.5" rx="1.5"/>
        <rect x="111" y="9.5" width="17.5" height="17.5" rx="1.5"/>
        <rect x="131" y="9.5" width="17.5" height="17.5" rx="1.5"/>
        <rect x="151" y="9.5" width="17.5" height="17.5" rx="1.5"/>
        <rect x="171" y="9.5" width="17.5" height="17.5" rx="1.5"/>
        
        <!-- QWERTY Row -->
        <rect x="11" y="32" width="27.5" height="17.5" rx="1.5"/>
        <rect x="41" y="32" width="17.5" height="17.5" rx="1.5"/>
        <rect x="61" y="32" width="17.5" height="17.5" rx="1.5"/>
        <rect x="81" y="32" width="17.5" height="17.5" rx="1.5"/>
        <rect x="101" y="32" width="17.5" height="17.5" rx="1.5"/>
        <rect x="121" y="32" width="17.5" height="17.5" rx="1.5"/>
        <rect x="141" y="32" width="17.5" height="17.5" rx="1.5"/>
        <rect x="161" y="32" width="27.5" height="17.5" rx="1.5"/>
        
        <!-- ASDF Row -->
        <rect x="11" y="54.5" width="32.5" height="17.5" rx="1.5"/>
        <rect x="46" y="54.5" width="17.5" height="17.5" rx="1.5"/>
        <rect x="66" y="54.5" width="17.5" height="17.5" rx="1.5"/>
        <rect x="86" y="54.5" width="17.5" height="17.5" rx="1.5"/>
        <rect x="106" y="54.5" width="17.5" height="17.5" rx="1.5"/>
        <rect x="126" y="54.5" width="17.5" height="17.5" rx="1.5"/>
        <rect x="146" y="54.5" width="17.5" height="17.5" rx="1.5"/>
        <rect x="166" y="54.5" width="22.5" height="17.5" rx="1.5"/>
        
        <!-- ZXCV Row -->
        <rect x="11" y="77" width="37.5" height="17.5" rx="1.5"/>
        <rect x="51" y="77" width="17.5" height="17.5" rx="1.5"/>
        <rect x="71" y="77" width="17.5" height="17.5" rx="1.5"/>
        <rect x="91" y="77" width="17.5" height="17.5" rx="1.5"/>
        <rect x="111" y="77" width="17.5" height="17.5" rx="1.5"/>
        <rect x="131" y="77" width="17.5" height="17.5" rx="1.5"/>
        <rect x="151" y="77" width="37.5" height="17.5" rx="1.5"/>
        
        <!-- Space Bar Row -->
        <rect x="11" y="99.5" width="22.5" height="17.5" rx="1.5"/>
        <rect x="36" y="99.5" width="22.5" height="17.5" rx="1.5"/>
        <rect x="61" y="99.5" width="90" height="17.5" rx="1.5"/>
        <rect x="153.5" y="99.5" width="22.5" height="17.5" rx="1.5"/>
    </g>

    <!-- Heart Outline -->
    <path d="M3.023,20.822c0.019,0.031,0.042,0.059,0.066,0.083l15.918,16.914 c0.115,0.122,0.271,0.192,0.444,0.197h0.012c0.163,0,0.317-0.062,0.435-0.176L37.28,21.032c0.008-0.006,0.076-0.068,0.117-0.108 c0.034-0.032,0.062-0.065,0.068-0.081c1.962-2.032,3.043-4.702,3.043-7.517c0-5.974-4.86-10.834-10.835-10.834 c-3.91,0-7.498,2.094-9.419,5.48c-1.92-3.387-5.508-5.48-9.419-5.48C4.86,2.492,0,7.352,0,13.326 C-0.001,16.14,1.078,18.808,3.023,20.822z M10.834,3.743c3.875,0,7.346,2.312,8.842,5.891c0.098,0.233,0.324,0.383,0.577,0.383 c0.252,0,0.479-0.15,0.577-0.384c1.497-3.578,4.968-5.89,8.843-5.89c5.285,0,9.585,4.3,9.585,9.584 c0,2.521-0.978,4.904-2.754,6.712c-0.017,0.018-0.032,0.035-0.045,0.053L19.483,36.5l-15.4-16.358 c-0.023-0.037-0.05-0.072-0.082-0.104c-1.775-1.805-2.752-4.188-2.752-6.711C1.249,8.042,5.549,3.743,10.834,3.743z"
          fill="none" 
          stroke="cyan" 
          stroke-width="2"
          transform="scale(3) translate(15, 0.5)"/>

     <text x="38" y="76" style="font: italic 36px serif; fill: white;">N C C A</text>
</svg>
