<svg xmlns="http://www.w3.org/2000/svg" viewBox="0 0 200 125">
    <!-- Keyboard Base -->
    <rect x="5" y="5" width="210" height="115" rx="5" fill="#5f6670" stroke="#666"/>
    
    <!-- Main Keys Section -->
    <g fill="#3f4853" stroke="#222" stroke-width="0.5">
        <!-- Number Row -->
        <rect x="11" y="9.5" width="17.5" height="17.5" rx="1.5"/>
        <rect x="31" y="9.5" width="17.5" height="17.5" rx="1.5"/>
        <rect x="51" y="9.5" width="17.5" height="17.5" rx="1.5"/>
        <rect x="71" y="9.5" width="17.5" height="17.5" rx="1.5"/>
        <rect x="91" y="9.5" width="17.5" height="17.5" rx="1.5"/>
        <rect x="111" y="9.5" width="17.5" height="17.5" rx="1.5"/>
        <rect x="131" y="9.5" width="17.5" height="17.5" rx="1.5"/>
        <rect x="151" y="9.5" width="17.5" height="17.5" rx="1.5"/>
        <rect x="171" y="9.5" width="17.5" height="17.5" rx="1.5"/>
        <rect x="191" y="9.5" width="17.5" height="17.5" rx="1.5"/>
        
        <!-- QWERTY Row -->
        <rect x="11" y="32" width="27.5" height="17.5" rx="1.5"/>
        <rect x="41" y="32" width="17.5" height="17.5" rx="1.5"/>
        <rect x="61" y="32" width="17.5" height="17.5" rx="1.5"/>
        <rect x="81" y="32" width="17.5" height="17.5" rx="1.5"/>
        <rect x="101" y="32" width="17.5" height="17.5" rx="1.5"/>
        <rect x="121" y="32" width="17.5" height="17.5" rx="1.5"/>
        <rect x="141" y="32" width="17.5" height="17.5" rx="1.5"/>
        <rect x="161" y="32" width="17.5" height="17.5" rx="1.5"/>
        <rect x="181" y="32" width="27.5" height="17.5" rx="1.5"/>
        
        <!-- ASDF Row -->
        <rect x="11" y="54.5" width="32.5" height="17.5" rx="1.5"/>
        <rect x="46" y="54.5" width="17.5" height="17.5" rx="1.5"/>
        <rect x="66" y="54.5" width="17.5" height="17.5" rx="1.5"/>
        <rect x="86" y="54.5" width="17.5" height="17.5" rx="1.5"/>
        <rect x="106" y="54.5" width="17.5" height="17.5" rx="1.5"/>
        <rect x="126" y="54.5" width="17.5" height="17.5" rx="1.5"/>
        <rect x="146" y="54.5" width="17.5" height="17.5" rx="1.5"/>
        <rect x="166" y="54.5" width="17.5" height="17.5" rx="1.5"/>
        <rect x="186" y="54.5" width="22.5" height="17.5" rx="1.5"/>
        
        <!-- ZXCV Row -->
        <rect x="11" y="77" width="37.5" height="17.5" rx="1.5"/>
        <rect x="51" y="77" width="17.5" height="17.5" rx="1.5"/>
        <rect x="71" y="77" width="17.5" height="17.5" rx="1.5"/>
        <rect x="91" y="77" width="17.5" height="17.5" rx="1.5"/>
        <rect x="111" y="77" width="17.5" height="17.5" rx="1.5"/>
        <rect x="131" y="77" width="17.5" height="17.5" rx="1.5"/>
        <rect x="151" y="77" width="17.5" height="17.5" rx="1.5"/>
        <rect x="171" y="77" width="37.5" height="17.5" rx="1.5"/>
        
        <!-- Space Bar Row -->
        <rect x="20" y="99.5" width="22.5" height="17.5" rx="1.5"/>
        <rect x="45" y="99.5" width="22.5" height="17.5" rx="1.5"/>
        <rect x="70" y="99.5" width="110" height="17.5" rx="1.5"/>
        <rect x="182" y="99.5" width="22.5" height="17.5" rx="1.5"/>
    </g>

     <text x="45" y="65" style="font: italic 36px serif; fill: white;">N C C A</text>
</svg>
